<svg id="Layer_1" data-name="Layer 1" xmlns="http://www.w3.org/2000/svg" viewBox="0 0 7.863 9.741"><title>Pinned Icon1</title><path d="M6.181,2.769c.046-.068.052-.077.1-.044a.312.312,0,0,1,.1.056l.04.028a.49.49,0,0,0,.062.043c.059-.009.092-.1.129-.162s.063-.077.108-.042a.087.087,0,0,1,.018.009l.038.026c.009,0,.015-.017.018-.039q.09-.564.183-1.127.064-.392.128-.783c0-.017,0-.041.025-.044A.075.075,0,0,1,7.184.7c.023.02.006.048,0,.072q-.12.784-.242,1.568-.029.189-.06.378a.111.111,0,0,0,0,.037l.043.029c.014,0,.019-.023.028-.034a1.83,1.83,0,0,0,.112-.159c.024-.041.045-.044.073-.026a.061.061,0,0,1,.044.019c.052.042.11.077.163.118l.009.006c.01,0,.02-.01.03-.026.039-.061.084-.117.124-.177.018-.028.034-.033.06-.015A.044.044,0,0,1,7.6,2.5c.031.025.063.048.1.072a.414.414,0,0,0-.251-.258.052.052,0,0,1-.036-.058c0-.033.016-.043.045-.05a.813.813,0,0,0,.2-.076.276.276,0,0,0,.131-.427,1.51,1.51,0,0,0-.176-.25A.089.089,0,0,1,7.659,1.3a.725.725,0,0,0,.154-.063.258.258,0,0,0,.111-.4,1.012,1.012,0,0,0-.276-.3.269.269,0,0,0-.14-.055C7.1.443,6.691.447,6.282.446a.2.2,0,0,0-.157.079.479.479,0,0,0-.1.25c0,.026.012.037.028.052a.415.415,0,0,1,.116.187.075.075,0,0,0,.068.062.3.3,0,0,1,.248.346.141.141,0,0,0,.029.113.328.328,0,0,1-.028.411.3.3,0,0,1-.382.073.235.235,0,0,0-.283.085c-.032.048-.056.1-.086.151-.02.032-.011.052.013.077a1.276,1.276,0,0,1,.236.351c.036.075.054.157.087.241h0Z" transform="translate(-1.069 -0.13)"/><path d="M3.926,3.243a.552.552,0,0,0,0-.077,1.18,1.18,0,0,1,.134-.6c.02-.034,0-.045-.022-.058a.7.7,0,0,1-.2-.2c-.023-.03-.023-.045,0-.074a.75.75,0,0,1,.467-.252c.038,0,.046-.015.034-.051-.06-.185-.125-.369-.2-.549-.019-.045-.035-.047-.075-.02a2.432,2.432,0,0,0-.362.315c0,.006,0,.017-.014.012l0-.021a.927.927,0,0,1,.314-.441c.031-.026.044-.045.021-.085-.054-.092-.1-.186-.154-.281C3.854.815,3.833.812,3.793.843a2.25,2.25,0,0,0-.324.31.134.134,0,0,1,.02-.09.991.991,0,0,1,.237-.34c.029-.028.035-.047.009-.081C3.678.571,3.623.5,3.562.432c-.032-.035-.055-.04-.09,0-.061.063-.126.123-.189.184l0,0A.47.47,0,0,1,3.342.447c.02-.054.1-.091.071-.151A.332.332,0,0,0,3.26.19a.617.617,0,0,0-.09-.038A.364.364,0,0,0,2.76.261a.673.673,0,0,0-.129.222,2.359,2.359,0,0,0-.1.948c0,.036.028.038.051.045.147.042.294.086.442.124a.123.123,0,0,1,.091.082c.2.483.4.964.6,1.447a.368.368,0,0,0,.048.086c.038.027.077.053.114.081C3.9,3.3,3.92,3.284,3.926,3.243Z" transform="translate(-1.069 -0.13)"/><path d="M4.241,1.23c.047.136.1.27.142.407.017.053.031.079.083.03a.253.253,0,0,1,.072-.04.163.163,0,0,1,.181.032.141.141,0,0,1,.049.161,1.242,1.242,0,0,0-.023.165c-.007.047,0,.064.058.054a.973.973,0,0,1,.626.06c.062.031.131.1.182.087s.072-.109.111-.166a.37.37,0,0,1,.44-.126.172.172,0,0,0,.251-.066.194.194,0,0,0-.05-.271c-.016-.012-.034-.023-.051-.034.063-.114.07-.174.024-.241a.2.2,0,0,0-.222-.077c-.05.01-.039-.023-.041-.048A.321.321,0,0,0,5.755.839a.409.409,0,0,0-.171.024c-.019.007-.033.015-.056,0A.385.385,0,0,0,5.014.848c-.027-.27-.186-.384-.44-.316A.063.063,0,0,1,4.5.5.384.384,0,0,0,3.937.475a.067.067,0,0,0-.015.1A3.932,3.932,0,0,1,4.241,1.23Z" transform="translate(-1.069 -0.13)"/><path d="M4.138,3.1a1.872,1.872,0,0,0,.184.127A.057.057,0,0,0,4.348,3.2c.039-.061.084-.117.123-.177.02-.03.036-.034.065-.011l.023.017h.008c.057.039.117.075.172.118l.013.008a.045.045,0,0,0,.024-.022c.036-.057.08-.108.115-.166.023-.038.044-.052.077-.031A.05.05,0,0,1,5,2.949c.052.039.108.073.158.114l.024.016c.012,0,.022-.013.034-.031.039-.06.084-.117.123-.177.019-.029.033-.029.059-.01l0,0c.019,0,.041.016.085.054h0a.3.3,0,0,1,.03.016A.315.315,0,0,0,5.634,3l.014-.017c.028-.043.059-.084.088-.125.052-.073.061-.085.114-.054a.137.137,0,0,1,.049.022H5.9A1,1,0,0,0,5.312,2.2.931.931,0,0,0,4.7,2.2c-.048.016-.062.006-.074-.041a.64.64,0,0,1-.007-.29c.008-.039.059-.1-.015-.114s-.061.063-.067.107a1.053,1.053,0,0,0,.029.323.277.277,0,0,1-.032-.012.437.437,0,0,0-.517.061c-.045.035-.039.056,0,.089a.59.59,0,0,0,.279.15.806.806,0,0,0-.231.47.155.155,0,0,0,.028.142C4.108,3.082,4.12,3.086,4.138,3.1Z" transform="translate(-1.069 -0.13)"/><path d="M1.074,3.8l.009-.009-.01-.007C1.065,3.785,1.069,3.79,1.074,3.8Z" transform="translate(-1.069 -0.13)"/><path d="M8.92,8.624l-.011-.149c0,.034,0,.069.007.1l0,.044Z" transform="translate(-1.069 -0.13)"/><path d="M8.93,8.848c0-.036-.007-.072-.01-.108v0l0-.044c-.038-.484-.268-3.484-.288-3.727L8.56,4.111c0,.038,0,.006,0-.032l0,.03-.008-.1h0c0-.067-.007-.134-.012-.2q-.035-.436-.071-.873l-.031-.471a1.246,1.246,0,0,0-.156.195c-.02.03-.037.033-.066.012-.059-.044-.121-.085-.181-.129-.027-.02-.042-.017-.061.011-.038.058-.084.111-.119.171-.026.044-.05.044-.085.018L7.7,2.691l0,.01c-.051-.035-.092-.061-.13-.091l-.006,0a.054.054,0,0,0-.028.025c-.04.06-.085.116-.123.176-.02.031-.037.034-.062.017a.053.053,0,0,1-.04-.016c-.051-.04-.108-.073-.158-.114l-.017-.013c-.015,0-.027.014-.041.035-.046.069-.1.135-.146.2L6.925,2.9a.028.028,0,0,1-.018,0,.035.035,0,0,1-.025-.028l-.1-.072c-.009,0-.021,0-.037-.018l-.02-.018c-.025-.01-.044,0-.061.025s-.05.078-.077.115c-.048.065-.063.083-.1.064h0c-.051.007-.114-.068-.17-.108l-.028-.019c-.032-.006-.052.021-.1.089s-.076.107-.107.109h0c-.028,0-.062-.021-.127-.066L5.9,2.939c-.005,0-.009,0-.011,0l-.038-.023c-.032,0-.052.022-.1.09s-.079.11-.115.106c-.014.013-.029.012-.052-.005-.058-.045-.12-.084-.179-.128-.019,0-.035.026-.068.072a1.163,1.163,0,0,0-.08.114c-.022.041-.044.046-.072.03a.052.052,0,0,1-.041-.016c-.051-.041-.108-.073-.158-.115l-.017-.012a.047.047,0,0,0-.033.025c-.039.058-.082.113-.12.171-.019.03-.036.038-.063.022-.01,0-.021,0-.035-.012-.052-.039-.106-.075-.158-.113H4.511l-.153.213a.394.394,0,0,1-.036-.018c-.013,0-.026,0-.044-.014a.763.763,0,0,0-.137-.1A.154.154,0,0,1,4.1,3.2a.053.053,0,0,0-.027.025c-.039.06-.085.116-.124.177-.02.031-.036.034-.065.012l0,0A.115.115,0,0,1,3.836,3.4a.254.254,0,0,1-.075-.066L3.7,3.29c-.032-.025-.05-.019-.071.013-.039.06-.084.117-.124.177-.019.028-.034.031-.061.011l-.019-.013a.349.349,0,0,1-.1-.06.346.346,0,0,0-.109-.064.072.072,0,0,0-.018.02c-.038.058-.081.113-.119.172-.023.035-.043.041-.077.014L3,3.552a.364.364,0,0,1-.1-.058c-.028-.02-.057-.052-.085-.069s-.031,0-.045.023c-.038.056-.08.109-.115.166-.025.04-.046.048-.085.017l-.007-.005a.391.391,0,0,1-.1-.059A.37.37,0,0,0,2.353,3.5a.072.072,0,0,0-.021.022c-.036.057-.08.109-.116.165-.024.038-.044.045-.081.015L2.127,3.7a.392.392,0,0,1-.1-.056c-.031-.021-.06-.056-.091-.072-.014,0-.027,0-.04.025-.036.057-.079.109-.116.165-.025.039-.046.049-.086.016S1.587,3.7,1.534,3.66c-.033-.027-.049-.018-.07.013-.038.058-.082.113-.12.171-.022.033-.041.036-.073.013-.062-.045-.126-.086-.189-.129l-.009.009c0,.02.009.041.015.061q.327,1.042.655,2.083c.07.223.143.445.215.668.077.264.157.526.248.785.1.335.2.669.312,1l.325,1.034c-.022-.07.035.114,0,0,.048.154.1.308.143.463.009.03.021.044.053.038l.327-.058c.191-.03.383-.059.574-.091.148-.024.3-.051.444-.077s.3-.045.444-.069l1.3-.216c.085-.012.17-.023.255-.037l1.159-.193c.446-.074.892-.148,1.339-.219C8.925,8.9,8.935,8.888,8.93,8.848ZM5.209,4.582a2.861,2.861,0,0,0-.337-.019c-.246,0-.35.1-.35.382v.2h.635v.616H4.522V8.5H3.6V5.762H3.051V5.146H3.6V4.887A.985.985,0,0,1,4.723,3.869c.162,0,.331.02.486.026Zm2.384,1.18H6.92v1.66c0,.311.078.389.389.389a1.408,1.408,0,0,0,.285-.026V8.5a3.539,3.539,0,0,1-.538.032c-.564,0-1.057-.13-1.057-.8V5.762H5.441V5.146H6v-1H6.92v1h.674Z" transform="translate(-1.069 -0.13)"/><path d="M8.558,3.962a.533.533,0,0,0-.006-.068C8.552,3.882,8.555,3.925,8.558,3.962Z" transform="translate(-1.069 -0.13)"/><path d="M1.966,3.468a.062.062,0,0,0-.026-.012A.063.063,0,0,0,1.9,3.447c-.046.008-.065.079-.1.12L1.772,3.6l-.142-.353c-.1-.26-.208-.521-.314-.781a.132.132,0,0,1,.007-.124c.1-.188.2-.379.3-.567a.2.2,0,0,0,.017-.208c-.019-.034-.014-.055.031-.069.144-.043.288-.09.43-.139.039-.013.059-.006.066.031.02.117.1.153.206.173.175.032.348.081.522.119a.1.1,0,0,1,.078.067q.293.707.59,1.412a.09.09,0,0,1-.019.1c-.055.078-.077.108-.113.1-.054-.039-.11-.076-.163-.116-.02-.015-.034-.017-.048-.007-.037-.007-.06.025-.116.1s-.072.1-.108.094c-.052-.04-.108-.076-.16-.115a.07.07,0,0,0-.023-.012A.06.06,0,0,0,2.766,3.3c-.04.01-.066.077-.1.12-.053.073-.073.1-.109.091-.05-.04-.105-.074-.156-.113-.021-.016-.036-.019-.051-.01-.038-.008-.061.023-.117.1s-.072.1-.109.093C2.075,3.543,2.019,3.508,1.966,3.468ZM2.807,1.8c-.176-.037-.353-.073-.529-.112-.042-.009-.053.013-.065.044-.059.15-.12.3-.179.448a.084.084,0,0,0-.013.071l.79-.435Z" transform="translate(-1.069 -0.13)"/></svg>